PathFileType	4	(X/Y/Z)	C:\Users\86182\Documents\cortex\Trimmed_M3_H14.trc
DataRate	CameraRate	NumFrames	NumMarkers	Units	OrigDataRate	OrigDataStartFrame	OrigNumFrames
100.00	100.00	       85	2	mm	100.00	181	       901
Frame#	Time	gripper			box			
		X1	Y1	Z1	X2	Y2	Z2	

181	1.800	267.97031	172.50990	220.42113	268.87125	169.79446	84.48396	
182	1.810	267.97192	172.50508	220.85756	268.89093	169.79402	84.90883	
183	1.820	267.97964	172.50142	221.29657	268.90204	169.78908	85.34180	
184	1.830	267.99371	172.49899	221.73955	268.91235	169.78229	85.77989	
185	1.840	268.01437	172.49701	222.18590	268.92639	169.77716	86.22037	
186	1.850	268.03885	172.49632	222.63295	268.94342	169.77765	86.66221	
187	1.860	268.06213	172.49916	223.07809	268.95914	169.78552	87.10464	
188	1.870	268.08072	172.50626	223.51993	268.97076	169.79872	87.54564	
189	1.880	268.09448	172.51544	223.95728	268.97995	169.81299	87.98280	
190	1.890	268.10486	172.52321	224.38815	268.98871	169.82571	88.41496	
191	1.900	268.11227	172.52760	224.81065	268.99463	169.83774	88.84229	
192	1.910	268.11664	172.52927	225.22473	268.99292	169.85120	89.26485	
193	1.920	268.11908	172.52975	225.63281	268.98236	169.86671	89.68243	
194	1.930	268.12198	172.52937	226.03889	268.96744	169.88304	90.09572	
195	1.940	268.12692	172.52734	226.44739	268.95383	169.89883	90.50783	
196	1.950	268.13275	172.52385	226.86194	268.94376	169.91426	90.92363	
197	1.960	268.13620	172.52135	227.28436	268.93588	169.93065	91.34701	
198	1.970	268.13580	172.52318	227.71484	268.92874	169.94891	91.77870	
199	1.980	268.13354	172.53116	228.15256	268.92279	169.96838	92.21646	
200	1.990	268.13159	172.54446	228.59569	268.91895	169.98737	92.65746	
201	2.000	268.13016	172.56068	229.04153	268.91684	170.00505	93.10101	
202	2.010	268.12891	172.57727	229.48763	268.91470	170.02312	93.54773	
203	2.020	268.12793	172.59276	229.93253	268.90955	170.04507	93.99567	
204	2.030	268.12646	172.60709	230.37518	268.89722	170.07341	94.43991	
205	2.040	268.12341	172.62108	230.81395	268.87460	170.10727	94.87666	
206	2.050	268.11874	172.63559	231.24686	268.84216	170.14287	95.30692	
207	2.060	268.11227	172.65169	231.67239	268.80380	170.17625	95.73475	
208	2.070	268.10281	172.67090	232.09024	268.76465	170.20518	96.16217	
209	2.080	268.08984	172.69397	232.50226	268.72784	170.22923	96.58736	
210	2.090	268.07507	172.71939	232.91191	268.69318	170.24876	97.00783	
211	2.100	268.06168	172.74397	233.32224	268.65994	170.26379	97.42319	
212	2.110	268.05273	172.76492	233.73460	268.63193	170.27295	97.83447	
213	2.120	268.05057	172.78098	234.14969	268.61996	170.27307	98.24191	
214	2.130	268.05643	172.79190	234.56845	268.63791	170.25980	98.64352	
215	2.140	268.07022	172.79784	234.99162	268.69730	170.22835	99.03430	
216	2.150	268.09042	172.79932	235.41951	268.80630	170.17363	99.40672	
217	2.160	268.11475	172.79770	235.85329	268.97250	170.09088	99.75340	
218	2.170	268.14053	172.79526	236.29449	269.20126	169.97789	100.07118	
219	2.180	268.16501	172.79453	236.74304	269.48578	169.83943	100.36548	
220	2.190	268.18600	172.79756	237.19733	269.79257	169.69357	100.65479	
221	2.200	268.20267	172.80562	237.65585	270.04932	169.57802	100.97702	
222	2.210	268.21457	172.81970	238.11726	270.16254	169.54227	101.38214	
223	2.220	268.22156	172.84009	238.57928	270.08658	169.61092	101.89313	
224	2.230	268.22375	172.86551	239.03853	269.86789	169.75755	102.47943	
225	2.240	268.22141	172.89365	239.49124	269.59552	169.93082	103.08603	
226	2.250	268.21487	172.92290	239.93463	269.33521	170.09186	103.67168	
227	2.260	268.20502	172.95261	240.36790	269.11813	170.22250	104.21550	
228	2.270	268.19357	172.98161	240.79176	268.95419	170.31851	104.71188	
229	2.280	268.18262	173.00734	241.20740	268.84091	170.38326	105.16788	
230	2.290	268.17310	173.02739	241.61699	268.76901	170.42308	105.59813	
231	2.300	268.16431	173.04146	242.02454	268.72711	170.44460	106.01689	
232	2.310	268.15564	173.05075	242.43442	268.70587	170.45320	106.43224	
233	2.320	268.14819	173.05588	242.84869	268.69925	170.45311	106.84715	
234	2.330	268.14420	173.05620	243.26727	268.70279	170.44846	107.26393	
235	2.340	268.14520	173.05124	243.68996	268.71262	170.44316	107.68567	
236	2.350	268.15201	173.04230	244.11700	268.72696	170.43851	108.11386	
237	2.360	268.16577	173.03169	244.54807	268.74646	170.43214	108.54639	
238	2.370	268.18707	173.02077	244.98187	268.77115	170.42126	108.97910	
239	2.380	268.21420	173.00948	245.41669	268.79742	170.40715	109.40950	
240	2.390	268.24335	172.99802	245.85126	268.81906	170.39500	109.83878	
241	2.400	268.27063	172.98778	246.28561	268.83270	170.38924	110.26974	
242	2.410	268.29260	172.98051	246.71999	268.84039	170.38982	110.70293	
243	2.420	268.30640	172.97673	247.15298	268.84457	170.39430	111.13554	
244	2.430	268.31091	172.97530	247.58189	268.84283	170.40155	111.56445	
245	2.440	268.30722	172.97437	248.00505	268.83020	170.41245	111.98941	
246	2.450	268.29672	172.97305	248.42224	268.80576	170.42781	112.41203	
247	2.460	268.27963	172.97208	248.83374	268.77426	170.44620	112.83261	
248	2.470	268.25562	172.97263	249.24072	268.74039	170.46429	113.25021	
249	2.480	268.22449	172.97487	249.64584	268.70355	170.47958	113.66518	
250	2.490	268.18637	172.97734	250.05214	268.66068	170.49240	114.07910	
251	2.500	268.14279	172.97812	250.46184	268.61282	170.50447	114.49301	
252	2.510	268.09738	172.97662	250.87729	268.56638	170.51575	114.90755	
253	2.520	268.05429	172.97435	251.30087	268.52798	170.52393	115.32484	
254	2.530	268.01651	172.97319	251.73230	268.50058	170.52768	115.74837	
255	2.540	267.98669	172.97298	252.16827	268.48370	170.52863	116.18036	
256	2.550	267.96817	172.97136	252.60599	268.47546	170.52985	116.61960	
257	2.560	267.96307	172.96698	253.04520	268.47366	170.53391	117.06261	
258	2.570	267.96896	172.96201	253.48657	268.47580	170.54257	117.50703	
259	2.580	267.97992	172.96010	253.92950	268.47906	170.55682	117.95296	
260	2.590	267.99084	172.96266	254.37222	268.48215	170.57587	118.40019	
261	2.600	267.99951	172.96822	254.81343	268.48599	170.59668	118.84583	
262	2.610	268.00531	172.97443	255.25345	268.49121	170.61620	119.28661	
263	2.620	268.00809	172.98013	255.69347	268.49567	170.63461	119.72267	
264	2.630	268.00687	172.98582	256.13260	268.49606	170.65480	120.15675	
265	2.640	267.99960	172.99243	256.56738	268.49115	170.67757	120.58984	
